<svg xmlns="http://www.w3.org/2000/svg" xmlns:xlink="http://www.w3.org/1999/xlink" width="500" zoomAndPan="magnify" viewBox="0 0 375 374.999991" height="500" preserveAspectRatio="xMidYMid meet" version="1.0"><defs><g/><clipPath id="eeef04d67e"><path d="M 65.46875 112.5 L 195.96875 112.5 L 195.96875 262.5 L 65.46875 262.5 Z M 65.46875 112.5 " clip-rule="nonzero"/></clipPath></defs><g clip-path="url(#eeef04d67e)"><path fill="#8fd4d0" d="M 173.046875 262.484375 L 87.820312 262.484375 C 87.089844 262.484375 86.363281 262.445312 85.636719 262.375 C 84.910156 262.300781 84.191406 262.195312 83.476562 262.050781 C 82.761719 261.910156 82.054688 261.730469 81.355469 261.519531 C 80.660156 261.308594 79.972656 261.0625 79.300781 260.78125 C 78.625 260.503906 77.96875 260.191406 77.324219 259.847656 C 76.683594 259.503906 76.058594 259.128906 75.449219 258.722656 C 74.84375 258.316406 74.257812 257.882812 73.695312 257.421875 C 73.132812 256.957031 72.59375 256.46875 72.078125 255.953125 C 71.5625 255.4375 71.070312 254.898438 70.609375 254.332031 C 70.144531 253.769531 69.710938 253.183594 69.308594 252.578125 C 68.902344 251.972656 68.527344 251.347656 68.183594 250.703125 C 67.839844 250.0625 67.527344 249.402344 67.246094 248.730469 C 66.96875 248.054688 66.722656 247.371094 66.511719 246.671875 C 66.296875 245.972656 66.121094 245.269531 65.976562 244.554688 C 65.835938 243.835938 65.726562 243.117188 65.652344 242.390625 C 65.582031 241.664062 65.546875 240.9375 65.542969 240.210938 L 65.542969 180.464844 C 65.542969 179.058594 65.671875 177.664062 65.941406 176.28125 C 66.207031 174.898438 66.605469 173.558594 67.132812 172.253906 C 67.660156 170.949219 68.308594 169.707031 69.078125 168.527344 C 69.84375 167.347656 70.71875 166.253906 71.699219 165.242188 L 117.292969 118.09375 C 117.71875 117.652344 118.164062 117.234375 118.628906 116.839844 C 119.09375 116.441406 119.582031 116.070312 120.085938 115.722656 C 120.585938 115.375 121.109375 115.054688 121.644531 114.757812 C 122.179688 114.464844 122.730469 114.195312 123.292969 113.957031 C 123.855469 113.71875 124.429688 113.507812 125.015625 113.324219 C 125.597656 113.140625 126.191406 112.992188 126.789062 112.867188 C 127.390625 112.746094 127.992188 112.652344 128.601562 112.59375 C 129.210938 112.53125 129.820312 112.5 130.433594 112.5 C 131.046875 112.5 131.65625 112.53125 132.265625 112.59375 C 132.875 112.652344 133.476562 112.746094 134.078125 112.867188 C 134.675781 112.992188 135.269531 113.140625 135.851562 113.324219 C 136.4375 113.507812 137.011719 113.71875 137.574219 113.957031 C 138.136719 114.195312 138.6875 114.464844 139.222656 114.757812 C 139.757812 115.054688 140.277344 115.375 140.78125 115.722656 C 141.285156 116.070312 141.773438 116.441406 142.238281 116.839844 C 142.703125 117.234375 143.148438 117.652344 143.574219 118.09375 L 193.417969 169.636719 C 193.726562 169.957031 194.003906 170.304688 194.25 170.679688 C 194.492188 171.050781 194.695312 171.445312 194.863281 171.863281 C 195.027344 172.277344 195.152344 172.703125 195.230469 173.140625 C 195.3125 173.582031 195.351562 174.023438 195.34375 174.46875 C 195.335938 174.917969 195.285156 175.359375 195.191406 175.792969 C 195.101562 176.230469 194.964844 176.65625 194.785156 177.0625 C 194.609375 177.472656 194.394531 177.863281 194.140625 178.230469 C 193.886719 178.597656 193.597656 178.933594 193.277344 179.246094 C 192.957031 179.554688 192.609375 179.832031 192.234375 180.074219 C 191.859375 180.316406 191.460938 180.519531 191.046875 180.679688 C 190.632812 180.84375 190.203125 180.964844 189.765625 181.042969 C 189.324219 181.125 188.882812 181.160156 188.433594 181.152344 C 187.988281 181.140625 187.546875 181.089844 187.113281 180.996094 C 186.675781 180.898438 186.253906 180.761719 185.84375 180.582031 C 185.433594 180.402344 185.046875 180.183594 184.683594 179.929688 C 184.316406 179.675781 183.976562 179.386719 183.667969 179.0625 L 133.824219 127.539062 C 133.605469 127.308594 133.367188 127.101562 133.105469 126.917969 C 132.847656 126.734375 132.570312 126.582031 132.28125 126.453125 C 131.988281 126.328125 131.6875 126.230469 131.375 126.167969 C 131.066406 126.101562 130.75 126.070312 130.433594 126.070312 C 130.117188 126.070312 129.800781 126.101562 129.492188 126.167969 C 129.179688 126.230469 128.878906 126.328125 128.585938 126.453125 C 128.296875 126.582031 128.019531 126.734375 127.757812 126.917969 C 127.5 127.101562 127.261719 127.308594 127.042969 127.539062 L 81.445312 174.667969 C 80.695312 175.449219 80.117188 176.339844 79.714844 177.347656 C 79.3125 178.351562 79.117188 179.398438 79.121094 180.480469 L 79.121094 240.210938 C 79.125 240.78125 79.179688 241.347656 79.292969 241.910156 C 79.40625 242.46875 79.570312 243.015625 79.789062 243.542969 C 80.007812 244.070312 80.277344 244.574219 80.59375 245.050781 C 80.914062 245.523438 81.273438 245.964844 81.679688 246.371094 C 82.082031 246.773438 82.523438 247.136719 83 247.453125 C 83.476562 247.769531 83.976562 248.039062 84.503906 248.257812 C 85.035156 248.476562 85.578125 248.644531 86.140625 248.757812 C 86.699219 248.867188 87.265625 248.925781 87.839844 248.925781 L 173.066406 248.925781 C 173.511719 248.925781 173.953125 248.96875 174.390625 249.054688 C 174.824219 249.144531 175.25 249.269531 175.660156 249.441406 C 176.070312 249.613281 176.460938 249.820312 176.832031 250.066406 C 177.203125 250.316406 177.546875 250.597656 177.859375 250.910156 C 178.175781 251.226562 178.457031 251.570312 178.703125 251.9375 C 178.949219 252.308594 179.160156 252.699219 179.328125 253.109375 C 179.5 253.523438 179.628906 253.945312 179.714844 254.382812 C 179.800781 254.820312 179.847656 255.261719 179.847656 255.703125 C 179.847656 256.148438 179.800781 256.589844 179.714844 257.027344 C 179.628906 257.464844 179.5 257.886719 179.328125 258.300781 C 179.160156 258.710938 178.949219 259.101562 178.703125 259.472656 C 178.457031 259.839844 178.175781 260.183594 177.859375 260.5 C 177.546875 260.8125 177.203125 261.09375 176.832031 261.34375 C 176.460938 261.589844 176.070312 261.796875 175.660156 261.96875 C 175.25 262.140625 174.824219 262.265625 174.390625 262.355469 C 173.953125 262.441406 173.511719 262.484375 173.066406 262.484375 Z M 173.046875 262.484375 " fill-opacity="1" fill-rule="nonzero"/></g><g fill="#c68c1a" fill-opacity="1"><g transform="translate(97.591695, 223.068058)"><g><path d="M 25.375 4.46875 C 24.945312 4.925781 24.390625 5.175781 23.703125 5.21875 C 23.023438 5.269531 22.460938 5.035156 22.015625 4.515625 C 21.148438 3.503906 20.332031 2.472656 19.5625 1.421875 C 18.800781 0.367188 17.9375 -0.613281 16.96875 -1.53125 C 16.125 -2.382812 15.265625 -3.1875 14.390625 -3.9375 C 13.515625 -4.6875 12.703125 -5.523438 11.953125 -6.453125 C 11.035156 -7.546875 10.207031 -8.710938 9.46875 -9.953125 C 8.976562 -8.035156 8.546875 -6.113281 8.171875 -4.1875 C 7.796875 -2.257812 7.457031 -0.320312 7.15625 1.625 C 7.082031 2.300781 6.742188 2.800781 6.140625 3.125 C 5.535156 3.445312 4.941406 3.539062 4.359375 3.40625 C 3.671875 3.238281 3.1875 2.890625 2.90625 2.359375 C 2.625 1.828125 2.523438 1.222656 2.609375 0.546875 C 3.035156 -2.273438 3.539062 -5.023438 4.125 -7.703125 C 4.71875 -10.378906 5.421875 -13.0625 6.234375 -15.75 C 6.015625 -16.25 5.800781 -16.753906 5.59375 -17.265625 C 5.382812 -17.785156 5.207031 -18.3125 5.0625 -18.84375 C 4.9375 -19.351562 4.953125 -19.8125 5.109375 -20.21875 C 5.265625 -20.632812 5.503906 -20.96875 5.828125 -21.21875 C 6.148438 -21.46875 6.515625 -21.644531 6.921875 -21.75 C 7.335938 -21.851562 7.753906 -21.835938 8.171875 -21.703125 C 8.453125 -22.566406 8.753906 -23.429688 9.078125 -24.296875 C 9.410156 -25.171875 9.738281 -26.039062 10.0625 -26.90625 C 10.320312 -27.5 10.570312 -28.082031 10.8125 -28.65625 C 11.050781 -29.226562 11.28125 -29.8125 11.5 -30.40625 C 11.65625 -30.695312 11.769531 -30.972656 11.84375 -31.234375 C 11.925781 -31.503906 12.039062 -31.785156 12.1875 -32.078125 C 12.226562 -32.222656 12.316406 -32.40625 12.453125 -32.625 C 12.609375 -33.101562 12.742188 -33.582031 12.859375 -34.0625 C 12.972656 -34.550781 13.109375 -35.039062 13.265625 -35.53125 C 13.441406 -36.132812 13.660156 -36.78125 13.921875 -37.46875 C 14.191406 -38.164062 14.507812 -38.820312 14.875 -39.4375 C 15.25 -40.0625 15.695312 -40.617188 16.21875 -41.109375 C 16.738281 -41.597656 17.359375 -41.914062 18.078125 -42.0625 C 18.765625 -42.1875 19.425781 -42.191406 20.0625 -42.078125 C 20.707031 -41.972656 21.332031 -41.785156 21.9375 -41.515625 C 22.550781 -41.253906 23.140625 -40.945312 23.703125 -40.59375 C 24.273438 -40.238281 24.820312 -39.875 25.34375 -39.5 C 26.570312 -38.675781 27.773438 -37.789062 28.953125 -36.84375 C 30.128906 -35.90625 31.113281 -34.8125 31.90625 -33.5625 C 32.675781 -32.332031 33.265625 -30.945312 33.671875 -29.40625 C 34.078125 -27.863281 34.078125 -26.367188 33.671875 -24.921875 C 33.378906 -24.054688 33.003906 -23.320312 32.546875 -22.71875 C 32.097656 -22.113281 31.546875 -21.53125 30.890625 -20.96875 C 29.242188 -19.519531 27.523438 -18.175781 25.734375 -16.9375 C 23.941406 -15.695312 22.082031 -14.613281 20.15625 -13.6875 C 19.25 -13.257812 18.269531 -12.84375 17.21875 -12.4375 C 16.164062 -12.03125 15.09375 -11.734375 14 -11.546875 C 14.269531 -11.160156 14.539062 -10.769531 14.8125 -10.375 C 15.082031 -9.988281 15.382812 -9.632812 15.71875 -9.3125 C 16.570312 -8.425781 17.4375 -7.582031 18.3125 -6.78125 C 19.195312 -5.988281 20.050781 -5.15625 20.875 -4.28125 C 21.632812 -3.394531 22.367188 -2.484375 23.078125 -1.546875 C 23.796875 -0.609375 24.515625 0.285156 25.234375 1.140625 C 25.691406 1.609375 25.9375 2.148438 25.96875 2.765625 C 26.007812 3.390625 25.8125 3.957031 25.375 4.46875 Z M 13.84375 -16.328125 C 14.882812 -16.617188 15.84375 -16.953125 16.71875 -17.328125 C 17.601562 -17.710938 18.488281 -18.144531 19.375 -18.625 C 20.3125 -19.125 21.234375 -19.671875 22.140625 -20.265625 C 23.054688 -20.867188 23.945312 -21.472656 24.8125 -22.078125 C 25.175781 -22.359375 25.5 -22.609375 25.78125 -22.828125 C 26.070312 -23.046875 26.34375 -23.257812 26.59375 -23.46875 C 26.851562 -23.675781 27.117188 -23.894531 27.390625 -24.125 C 27.671875 -24.351562 27.976562 -24.632812 28.3125 -24.96875 C 28.40625 -25.082031 28.503906 -25.179688 28.609375 -25.265625 C 28.722656 -25.359375 28.832031 -25.457031 28.9375 -25.5625 C 29.226562 -26.625 29.234375 -27.679688 28.953125 -28.734375 C 28.554688 -30.003906 27.953125 -31.097656 27.140625 -32.015625 C 26.328125 -32.941406 25.375 -33.773438 24.28125 -34.515625 C 23.664062 -34.984375 23.039062 -35.414062 22.40625 -35.8125 C 21.769531 -36.207031 21.085938 -36.59375 20.359375 -36.96875 C 20.179688 -37.09375 19.910156 -37.234375 19.546875 -37.390625 C 19.304688 -37.378906 19.125 -37.304688 19 -37.171875 C 18.726562 -36.703125 18.570312 -36.367188 18.53125 -36.171875 C 18.457031 -36.078125 18.351562 -35.878906 18.21875 -35.578125 C 18.082031 -35.191406 17.976562 -34.898438 17.90625 -34.703125 C 17.84375 -34.503906 17.78125 -34.285156 17.71875 -34.046875 C 16.976562 -31.421875 16.082031 -28.875 15.03125 -26.40625 C 13.976562 -23.9375 13.003906 -21.40625 12.109375 -18.8125 C 11.929688 -18.414062 11.78125 -17.992188 11.65625 -17.546875 C 11.539062 -17.109375 11.414062 -16.6875 11.28125 -16.28125 C 11.613281 -16.164062 11.804688 -16.117188 11.859375 -16.140625 C 12.285156 -16.109375 12.632812 -16.113281 12.90625 -16.15625 C 13.1875 -16.195312 13.5 -16.253906 13.84375 -16.328125 Z M 13.84375 -16.328125 "/></g></g></g><g fill="#c68c1a" fill-opacity="1"><g transform="translate(126.007567, 229.830251)"><g><path d="M 9.21875 -1.59375 C 8.414062 -2.375 7.710938 -3.238281 7.109375 -4.1875 C 6.503906 -5.144531 5.976562 -6.132812 5.53125 -7.15625 C 5.113281 -8.0625 4.71875 -9.019531 4.34375 -10.03125 C 3.976562 -11.039062 3.664062 -12.0625 3.40625 -13.09375 C 3.15625 -14.132812 3 -15.175781 2.9375 -16.21875 C 2.875 -17.269531 2.957031 -18.300781 3.1875 -19.3125 C 3.59375 -21.28125 4.082031 -23.210938 4.65625 -25.109375 C 5.226562 -27.003906 5.910156 -28.851562 6.703125 -30.65625 C 6.960938 -31.320312 7.269531 -32.066406 7.625 -32.890625 C 7.988281 -33.722656 8.410156 -34.507812 8.890625 -35.25 C 9.378906 -36 9.925781 -36.664062 10.53125 -37.25 C 11.144531 -37.84375 11.867188 -38.257812 12.703125 -38.5 C 13.941406 -38.851562 15.140625 -38.875 16.296875 -38.5625 C 17.453125 -38.25 18.546875 -37.757812 19.578125 -37.09375 C 20.617188 -36.425781 21.59375 -35.648438 22.5 -34.765625 C 23.414062 -33.890625 24.273438 -33.035156 25.078125 -32.203125 C 25.796875 -31.429688 26.503906 -30.617188 27.203125 -29.765625 C 27.898438 -28.921875 28.628906 -28.109375 29.390625 -27.328125 C 30.273438 -26.273438 31.171875 -25.222656 32.078125 -24.171875 C 32.984375 -23.128906 33.675781 -21.972656 34.15625 -20.703125 C 34.75 -19.253906 35.003906 -17.847656 34.921875 -16.484375 C 34.847656 -15.117188 34.554688 -13.800781 34.046875 -12.53125 C 33.546875 -11.269531 32.867188 -10.0625 32.015625 -8.90625 C 31.171875 -7.757812 30.273438 -6.65625 29.328125 -5.59375 C 28.472656 -4.675781 27.503906 -3.71875 26.421875 -2.71875 C 25.335938 -1.71875 24.171875 -0.832031 22.921875 -0.0625 C 21.671875 0.707031 20.367188 1.273438 19.015625 1.640625 C 17.660156 2.003906 16.296875 2.003906 14.921875 1.640625 C 14.117188 1.390625 13.554688 0.988281 13.234375 0.4375 C 12.503906 0.207031 11.800781 -0.0507812 11.125 -0.34375 C 10.445312 -0.632812 9.8125 -1.050781 9.21875 -1.59375 Z M 7.9375 -19.03125 C 7.71875 -18.0625 7.632812 -17.148438 7.6875 -16.296875 C 7.738281 -15.453125 7.90625 -14.488281 8.1875 -13.40625 C 8.570312 -12.1875 9.015625 -10.957031 9.515625 -9.71875 C 10.015625 -8.476562 10.640625 -7.320312 11.390625 -6.25 C 12.046875 -5.269531 12.867188 -4.609375 13.859375 -4.265625 C 14.503906 -4.046875 15.128906 -3.84375 15.734375 -3.65625 C 16.347656 -3.46875 16.957031 -3.226562 17.5625 -2.9375 C 17.8125 -2.988281 18.054688 -3.046875 18.296875 -3.109375 C 18.546875 -3.171875 18.804688 -3.28125 19.078125 -3.4375 C 19.796875 -3.769531 20.46875 -4.148438 21.09375 -4.578125 C 21.71875 -5.003906 22.320312 -5.457031 22.90625 -5.9375 C 24.039062 -6.882812 25.160156 -7.929688 26.265625 -9.078125 C 27.378906 -10.234375 28.3125 -11.460938 29.0625 -12.765625 C 29.800781 -14.046875 30.203125 -15.300781 30.265625 -16.53125 C 30.328125 -17.757812 29.9375 -19.019531 29.09375 -20.3125 C 28.3125 -21.507812 27.425781 -22.625 26.4375 -23.65625 C 25.457031 -24.695312 24.5 -25.742188 23.5625 -26.796875 C 22.78125 -27.710938 22.007812 -28.585938 21.25 -29.421875 C 20.5 -30.253906 19.660156 -31.054688 18.734375 -31.828125 C 17.878906 -32.578125 17.023438 -33.179688 16.171875 -33.640625 C 16.066406 -33.679688 15.96875 -33.71875 15.875 -33.75 C 15.78125 -33.789062 15.675781 -33.84375 15.5625 -33.90625 L 14.6875 -34.09375 C 14.363281 -34.050781 14.160156 -34.003906 14.078125 -33.953125 C 13.742188 -33.660156 13.554688 -33.519531 13.515625 -33.53125 C 13.191406 -33.113281 12.972656 -32.8125 12.859375 -32.625 C 12.742188 -32.4375 12.578125 -32.140625 12.359375 -31.734375 C 11.796875 -30.660156 11.296875 -29.5625 10.859375 -28.4375 C 10.421875 -27.320312 10.019531 -26.210938 9.65625 -25.109375 C 9.289062 -24.003906 8.972656 -22.992188 8.703125 -22.078125 C 8.429688 -21.160156 8.175781 -20.144531 7.9375 -19.03125 Z M 7.9375 -19.03125 "/></g></g></g><g fill="#c68c1a" fill-opacity="1"><g transform="translate(160.515663, 234.794487)"><g><path d="M 9.015625 -2.453125 C 8.148438 -3.171875 7.375 -3.96875 6.6875 -4.84375 C 6 -5.726562 5.382812 -6.660156 4.84375 -7.640625 C 4.332031 -8.492188 3.84375 -9.40625 3.375 -10.375 C 2.914062 -11.351562 2.507812 -12.347656 2.15625 -13.359375 C 1.8125 -14.367188 1.554688 -15.390625 1.390625 -16.421875 C 1.222656 -17.460938 1.207031 -18.492188 1.34375 -19.515625 C 1.5625 -21.515625 1.867188 -23.484375 2.265625 -25.421875 C 2.660156 -27.367188 3.160156 -29.273438 3.765625 -31.140625 C 3.972656 -31.835938 4.210938 -32.613281 4.484375 -33.46875 C 4.765625 -34.332031 5.113281 -35.15625 5.53125 -35.9375 C 5.945312 -36.726562 6.429688 -37.445312 6.984375 -38.09375 C 7.535156 -38.738281 8.207031 -39.21875 9 -39.53125 C 10.207031 -40 11.398438 -40.128906 12.578125 -39.921875 C 13.765625 -39.722656 14.90625 -39.335938 16 -38.765625 C 17.101562 -38.203125 18.144531 -37.523438 19.125 -36.734375 C 20.101562 -35.953125 21.035156 -35.1875 21.921875 -34.4375 C 22.710938 -33.726562 23.492188 -32.984375 24.265625 -32.203125 C 25.046875 -31.429688 25.847656 -30.691406 26.671875 -29.984375 C 27.660156 -29.023438 28.65625 -28.0625 29.65625 -27.09375 C 30.65625 -26.132812 31.453125 -25.046875 32.046875 -23.828125 C 32.773438 -22.441406 33.164062 -21.066406 33.21875 -19.703125 C 33.269531 -18.335938 33.101562 -17 32.71875 -15.6875 C 32.332031 -14.382812 31.769531 -13.117188 31.03125 -11.890625 C 30.300781 -10.671875 29.515625 -9.488281 28.671875 -8.34375 C 27.910156 -7.34375 27.035156 -6.296875 26.046875 -5.203125 C 25.066406 -4.109375 23.988281 -3.113281 22.8125 -2.21875 C 21.632812 -1.332031 20.390625 -0.644531 19.078125 -0.15625 C 17.773438 0.320312 16.421875 0.453125 15.015625 0.234375 C 14.179688 0.0664062 13.582031 -0.28125 13.21875 -0.8125 C 12.46875 -0.96875 11.738281 -1.160156 11.03125 -1.390625 C 10.332031 -1.628906 9.660156 -1.984375 9.015625 -2.453125 Z M 6.109375 -19.671875 C 5.984375 -18.691406 5.988281 -17.785156 6.125 -16.953125 C 6.257812 -16.117188 6.507812 -15.175781 6.875 -14.125 C 7.375 -12.945312 7.929688 -11.757812 8.546875 -10.5625 C 9.160156 -9.375 9.894531 -8.28125 10.75 -7.28125 C 11.5 -6.375 12.378906 -5.796875 13.390625 -5.546875 C 14.066406 -5.390625 14.71875 -5.25 15.34375 -5.125 C 15.96875 -5 16.59375 -4.820312 17.21875 -4.59375 C 17.457031 -4.664062 17.695312 -4.742188 17.9375 -4.828125 C 18.175781 -4.921875 18.414062 -5.046875 18.65625 -5.203125 C 19.34375 -5.609375 19.976562 -6.054688 20.5625 -6.546875 C 21.144531 -7.035156 21.707031 -7.539062 22.25 -8.0625 C 23.289062 -9.125 24.304688 -10.28125 25.296875 -11.53125 C 26.296875 -12.789062 27.109375 -14.097656 27.734375 -15.453125 C 28.347656 -16.796875 28.625 -18.082031 28.5625 -19.3125 C 28.507812 -20.539062 28.003906 -21.753906 27.046875 -22.953125 C 26.148438 -24.078125 25.160156 -25.109375 24.078125 -26.046875 C 23.003906 -26.992188 21.953125 -27.945312 20.921875 -28.90625 C 20.054688 -29.726562 19.207031 -30.519531 18.375 -31.28125 C 17.550781 -32.039062 16.640625 -32.765625 15.640625 -33.453125 C 14.722656 -34.117188 13.816406 -34.640625 12.921875 -35.015625 C 12.816406 -35.046875 12.710938 -35.070312 12.609375 -35.09375 C 12.515625 -35.125 12.40625 -35.164062 12.28125 -35.21875 L 11.390625 -35.328125 C 11.078125 -35.253906 10.878906 -35.1875 10.796875 -35.125 C 10.503906 -34.8125 10.335938 -34.65625 10.296875 -34.65625 C 10.003906 -34.207031 9.8125 -33.882812 9.71875 -33.6875 C 9.625 -33.488281 9.488281 -33.175781 9.3125 -32.75 C 8.851562 -31.625 8.457031 -30.488281 8.125 -29.34375 C 7.789062 -28.195312 7.5 -27.054688 7.25 -25.921875 C 6.988281 -24.785156 6.765625 -23.742188 6.578125 -22.796875 C 6.398438 -21.859375 6.242188 -20.816406 6.109375 -19.671875 Z M 6.109375 -19.671875 "/></g></g></g><g fill="#c68c1a" fill-opacity="1"><g transform="translate(195.482609, 236.607733)"><g><path d="M 8.28125 -1.625 C 8.320312 -0.875 8.101562 -0.300781 7.625 0.09375 C 7.15625 0.5 6.625 0.71875 6.03125 0.75 C 5.445312 0.78125 4.894531 0.617188 4.375 0.265625 C 3.863281 -0.078125 3.585938 -0.625 3.546875 -1.375 C 3.222656 -7.6875 2.976562 -13.96875 2.8125 -20.21875 C 2.65625 -26.476562 2.710938 -32.765625 2.984375 -39.078125 C 3.023438 -39.765625 3.238281 -40.316406 3.625 -40.734375 C 4.019531 -41.148438 4.460938 -41.394531 4.953125 -41.46875 C 5.441406 -41.550781 5.9375 -41.476562 6.4375 -41.25 C 6.945312 -41.03125 7.335938 -40.609375 7.609375 -39.984375 C 8.515625 -37.773438 9.359375 -35.550781 10.140625 -33.3125 C 10.929688 -31.082031 11.710938 -28.835938 12.484375 -26.578125 C 13.253906 -24.328125 14.039062 -22.082031 14.84375 -19.84375 C 15.65625 -17.613281 16.53125 -15.414062 17.46875 -13.25 C 19.257812 -18.519531 20.859375 -23.800781 22.265625 -29.09375 C 23.671875 -34.382812 24.75 -39.800781 25.5 -45.34375 C 25.582031 -45.9375 25.832031 -46.378906 26.25 -46.671875 C 26.675781 -46.972656 27.148438 -47.140625 27.671875 -47.171875 C 28.203125 -47.203125 28.691406 -47.085938 29.140625 -46.828125 C 29.597656 -46.578125 29.898438 -46.160156 30.046875 -45.578125 C 30.453125 -43.816406 30.648438 -42.078125 30.640625 -40.359375 C 30.628906 -38.640625 30.671875 -36.890625 30.765625 -35.109375 C 30.859375 -33.210938 31.0625 -31.363281 31.375 -29.5625 C 31.6875 -27.757812 31.96875 -25.9375 32.21875 -24.09375 C 32.738281 -20.40625 33.171875 -16.707031 33.515625 -13 C 33.859375 -9.300781 34.1875 -5.601562 34.5 -1.90625 C 34.539062 -1.113281 34.332031 -0.515625 33.875 -0.109375 C 33.414062 0.285156 32.890625 0.5 32.296875 0.53125 C 31.703125 0.5625 31.140625 0.398438 30.609375 0.046875 C 30.085938 -0.296875 29.804688 -0.863281 29.765625 -1.65625 C 29.484375 -5.363281 29.160156 -9.066406 28.796875 -12.765625 C 28.441406 -16.460938 28.007812 -20.160156 27.5 -23.859375 C 27.382812 -24.515625 27.28125 -25.195312 27.1875 -25.90625 C 27.09375 -26.625 26.988281 -27.3125 26.875 -27.96875 C 25.90625 -24.3125 24.847656 -20.710938 23.703125 -17.171875 C 22.566406 -13.640625 21.378906 -10.101562 20.140625 -6.5625 C 19.960938 -6.070312 19.691406 -5.648438 19.328125 -5.296875 C 18.972656 -4.953125 18.515625 -4.765625 17.953125 -4.734375 C 17.578125 -4.710938 17.1875 -4.796875 16.78125 -4.984375 C 16.375 -5.179688 16.066406 -5.457031 15.859375 -5.8125 C 14.085938 -9.1875 12.554688 -12.640625 11.265625 -16.171875 C 9.984375 -19.710938 8.710938 -23.289062 7.453125 -26.90625 C 7.472656 -22.675781 7.5625 -18.457031 7.71875 -14.25 C 7.875 -10.050781 8.0625 -5.84375 8.28125 -1.625 Z M 8.28125 -1.625 "/></g></g></g><g fill="#c68c1a" fill-opacity="1"><g transform="translate(235.573463, 234.192556)"><g><path d="M 1.046875 -0.15625 C 0.316406 -0.25 -0.207031 -0.570312 -0.53125 -1.125 C -0.851562 -1.675781 -0.972656 -2.234375 -0.890625 -2.796875 C -0.816406 -3.367188 -0.5625 -3.878906 -0.125 -4.328125 C 0.3125 -4.773438 0.894531 -4.945312 1.625 -4.84375 C 3.257812 -4.601562 4.867188 -4.539062 6.453125 -4.65625 C 8.035156 -4.769531 9.640625 -4.984375 11.265625 -5.296875 C 10.203125 -7.984375 9.460938 -10.722656 9.046875 -13.515625 C 8.640625 -16.304688 8.335938 -19.113281 8.140625 -21.9375 C 7.953125 -24.757812 7.757812 -27.597656 7.5625 -30.453125 C 7.363281 -33.304688 6.960938 -36.125 6.359375 -38.90625 C 4.867188 -38.726562 3.363281 -38.578125 1.84375 -38.453125 C 0.320312 -38.335938 -1.191406 -38.257812 -2.703125 -38.21875 C -3.367188 -38.207031 -3.957031 -38.363281 -4.46875 -38.6875 C -4.976562 -39.007812 -5.28125 -39.503906 -5.375 -40.171875 C -5.46875 -40.753906 -5.328125 -41.34375 -4.953125 -41.9375 C -4.578125 -42.539062 -4.050781 -42.847656 -3.375 -42.859375 C -1.550781 -42.929688 0.273438 -43.03125 2.109375 -43.15625 C 3.953125 -43.289062 5.769531 -43.507812 7.5625 -43.8125 C 9.351562 -44.113281 11.113281 -44.53125 12.84375 -45.0625 C 14.582031 -45.59375 16.296875 -46.296875 17.984375 -47.171875 C 18.535156 -47.453125 19.117188 -47.457031 19.734375 -47.1875 C 20.359375 -46.925781 20.8125 -46.519531 21.09375 -45.96875 C 21.375 -45.320312 21.382812 -44.707031 21.125 -44.125 C 20.875 -43.550781 20.457031 -43.125 19.875 -42.84375 C 17.082031 -41.40625 14.117188 -40.351562 10.984375 -39.6875 C 11.628906 -36.957031 12.035156 -34.164062 12.203125 -31.3125 C 12.367188 -28.457031 12.539062 -25.625 12.71875 -22.8125 C 12.894531 -20 13.195312 -17.207031 13.625 -14.4375 C 14.050781 -11.675781 14.8125 -8.972656 15.90625 -6.328125 C 17.144531 -6.628906 18.359375 -6.925781 19.546875 -7.21875 C 20.734375 -7.507812 21.929688 -7.785156 23.140625 -8.046875 C 23.878906 -8.203125 24.460938 -8.078125 24.890625 -7.671875 C 25.328125 -7.273438 25.585938 -6.785156 25.671875 -6.203125 C 25.765625 -5.617188 25.660156 -5.046875 25.359375 -4.484375 C 25.066406 -3.921875 24.554688 -3.5625 23.828125 -3.40625 C 21.921875 -3.007812 20.035156 -2.566406 18.171875 -2.078125 C 16.304688 -1.585938 14.429688 -1.15625 12.546875 -0.78125 C 10.671875 -0.40625 8.773438 -0.140625 6.859375 0.015625 C 4.941406 0.171875 3.003906 0.113281 1.046875 -0.15625 Z M 1.046875 -0.15625 "/></g></g></g><g fill="#c68c1a" fill-opacity="1"><g transform="translate(263.754241, 230.098471)"><g><path d="M -5.390625 -35.359375 C -6.210938 -35.421875 -6.789062 -35.820312 -7.125 -36.5625 C -7.445312 -37.039062 -7.523438 -37.632812 -7.359375 -38.34375 C -7.191406 -39.050781 -6.789062 -39.523438 -6.15625 -39.765625 C -2.550781 -41.203125 1.117188 -42.378906 4.859375 -43.296875 C 8.597656 -44.222656 12.347656 -45.144531 16.109375 -46.0625 C 16.835938 -46.226562 17.445312 -46.125 17.9375 -45.75 C 18.425781 -45.382812 18.738281 -44.910156 18.875 -44.328125 C 19.007812 -43.753906 18.941406 -43.179688 18.671875 -42.609375 C 18.398438 -42.035156 17.898438 -41.664062 17.171875 -41.5 C 14.179688 -40.726562 11.164062 -39.988281 8.125 -39.28125 C 5.082031 -38.582031 2.078125 -37.726562 -0.890625 -36.71875 C -0.453125 -35.207031 -0.00390625 -33.703125 0.453125 -32.203125 C 0.921875 -30.703125 1.394531 -29.191406 1.875 -27.671875 C 4.757812 -28.503906 7.628906 -29.375 10.484375 -30.28125 C 13.335938 -31.1875 16.242188 -31.898438 19.203125 -32.421875 C 19.941406 -32.546875 20.5625 -32.40625 21.0625 -32 C 21.5625 -31.59375 21.875 -31.101562 22 -30.53125 C 22.132812 -29.957031 22.0625 -29.390625 21.78125 -28.828125 C 21.507812 -28.273438 21.003906 -27.929688 20.265625 -27.796875 C 17.347656 -27.285156 14.5 -26.585938 11.71875 -25.703125 C 8.945312 -24.816406 6.132812 -23.960938 3.28125 -23.140625 C 4.15625 -20.421875 5.015625 -17.707031 5.859375 -15 C 6.703125 -12.300781 7.488281 -9.578125 8.21875 -6.828125 C 9.488281 -7.441406 10.785156 -8.050781 12.109375 -8.65625 C 13.429688 -9.269531 14.765625 -9.828125 16.109375 -10.328125 C 17.453125 -10.828125 18.816406 -11.234375 20.203125 -11.546875 C 21.585938 -11.867188 22.992188 -12.078125 24.421875 -12.171875 C 25.078125 -12.191406 25.628906 -11.925781 26.078125 -11.375 C 26.523438 -10.832031 26.734375 -10.273438 26.703125 -9.703125 C 26.660156 -9.015625 26.398438 -8.46875 25.921875 -8.0625 C 25.453125 -7.664062 24.875 -7.453125 24.1875 -7.421875 C 22.90625 -7.367188 21.640625 -7.15625 20.390625 -6.78125 C 19.140625 -6.40625 17.921875 -5.976562 16.734375 -5.5 C 15.359375 -4.945312 14.003906 -4.351562 12.671875 -3.71875 C 11.335938 -3.09375 10.015625 -2.441406 8.703125 -1.765625 C 8.085938 -1.472656 7.445312 -1.453125 6.78125 -1.703125 C 6.226562 -1.648438 5.695312 -1.742188 5.1875 -1.984375 C 4.6875 -2.234375 4.359375 -2.707031 4.203125 -3.40625 C 3.359375 -6.65625 2.460938 -9.851562 1.515625 -13 C 0.566406 -16.15625 -0.414062 -19.3125 -1.4375 -22.46875 C -1.957031 -22.789062 -2.316406 -23.265625 -2.515625 -23.890625 C -2.722656 -24.515625 -2.691406 -25.109375 -2.421875 -25.671875 C -3.472656 -28.867188 -4.460938 -32.097656 -5.390625 -35.359375 Z M -5.390625 -35.359375 "/></g></g></g></svg>